<svg xmlns="http://www.w3.org/2000/svg" xmlns:xlink="http://www.w3.org/1999/xlink"><defs><style>
    .sprite-symbol-usage {display: none;}
    .sprite-symbol-usage:target {display: inline;}
  </style><symbol viewBox="0 0 48 48" id="burger"><path d="M41 14H7a2 2 0 0 1 0-4h34a2 2 0 0 1 0 4ZM41 26H7a2 2 0 0 1 0-4h34a2 2 0 0 1 0 4ZM41 38H7a2 2 0 0 1 0-4h34a2 2 0 0 1 0 4Z" /></symbol><symbol viewBox="0 0 10 19" id="facebook"><path d="m9.345 10.688.519-3.439H6.621V5.018A1.7 1.7 0 0 1 8.526 3.16H10V.232A17.673 17.673 0 0 0 7.383 0c-2.67 0-4.415 1.647-4.415 4.628v2.621H0v3.439h2.968V19h3.653v-8.312Z" /></symbol><symbol viewBox="0 0 7 15" id="lightning"><path d="M6.978 6.958a.213.213 0 0 0-.184-.114l-2.975-.072L6.311.275a.2.2 0 0 0-.1-.254.215.215 0 0 0-.277.079L.033 9.169a.2.2 0 0 0 0 .215.213.213 0 0 0 .2.1l2.933-.227-2.39 5.46a.2.2 0 0 0 .091.258.218.218 0 0 0 .1.027.213.213 0 0 0 .171-.085l5.821-7.748a.2.2 0 0 0 .019-.211" /></symbol><symbol viewBox="0 0 17.49 17.491" id="magnifier"><path d="M6.5 0A6.507 6.507 0 0 0 0 6.5 6.507 6.507 0 0 0 6.5 13a6.5 6.5 0 0 0 4.226-1.566l.274.274v.792l5 4.991L17.49 16l-4.988-5h-.794l-.276-.275A6.494 6.494 0 0 0 13 6.5 6.507 6.507 0 0 0 6.5 0Zm0 11A4.505 4.505 0 0 1 2 6.5 4.505 4.505 0 0 1 6.5 2 4.505 4.505 0 0 1 11 6.5 4.505 4.505 0 0 1 6.5 11Z" /></symbol><symbol viewBox="0 0 86 85" id="play_button"><defs><filter id="play_button_a" x="0" y="0" width="86" height="85" filterUnits="userSpaceOnUse"><feOffset dy="2"></feOffset><feGaussianBlur stdDeviation="7" result="blur"></feGaussianBlur><feFlood flood-opacity=".431"></feFlood><feComposite operator="in" in2="blur"></feComposite><feComposite in="SourceGraphic"></feComposite></filter></defs><g filter="url(#play_button_a)"><ellipse data-name="Oval Copy" cx="22" cy="21.5" rx="22" ry="21.5" transform="translate(21 19)" fill="#fff" /></g><path data-name="Rectangle Copy" d="m40.646 33.782 7.071 7.071-6.364 6.364Z" fill="#19202c" /></symbol><symbol viewBox="0 0 18.2 18.2" id="play_button_outlined"><g transform="translate(-409.4 -182.4)"><path d="m417.5 187.964 3.536 3.536-3.536 3.535Z" fill="#fff" /><circle cx="8.5" cy="8.5" r="8.5" transform="translate(410 183)" fill="none" stroke="#fff" stroke-miterlimit="10" stroke-width="1.2" /></g></symbol><symbol viewBox="0 0 28 25" id="rss"><text transform="translate(14 20)" font-size="21" font-family="DINCondensed-Regular, DIN"><tspan x="-13.912" y="0">RSS</tspan></text></symbol><symbol viewBox="0 0 20 16" id="twitter"><path d="M17.944 3.987c.013.175.013.35.013.525A11.491 11.491 0 0 1 6.294 16 11.712 11.712 0 0 1 0 14.188a8.608 8.608 0 0 0 .99.05 8.289 8.289 0 0 0 5.089-1.725 4.1 4.1 0 0 1-3.833-2.8 5.246 5.246 0 0 0 .774.062 4.4 4.4 0 0 0 1.08-.137A4.054 4.054 0 0 1 .812 5.675v-.05a4.176 4.176 0 0 0 1.853.512A4.019 4.019 0 0 1 .838 2.775 3.961 3.961 0 0 1 1.4.737a11.711 11.711 0 0 0 8.448 4.225 4.492 4.492 0 0 1-.1-.925A4.067 4.067 0 0 1 13.845 0a4.118 4.118 0 0 1 2.995 1.275A8.145 8.145 0 0 0 19.442.3a4.038 4.038 0 0 1-1.8 2.225A8.316 8.316 0 0 0 20 1.9a8.74 8.74 0 0 1-2.056 2.087Z" /></symbol><symbol viewBox="0 0 20 14" id="youtube"><path d="M2.186 13.581a2.471 2.471 0 0 1-1.768-1.743A26.152 26.152 0 0 1 0 7.014a26.144 26.144 0 0 1 .418-4.823A2.509 2.509 0 0 1 2.186.419C3.746 0 10 0 10 0s6.254 0 7.814.419a2.509 2.509 0 0 1 1.769 1.772A26.144 26.144 0 0 1 20 7.014a26.152 26.152 0 0 1-.418 4.824 2.471 2.471 0 0 1-1.769 1.743C16.254 14 10 14 10 14s-6.254 0-7.814-.419Z" /></symbol></defs><use id="burger-usage" xlink:href="#burger" class="sprite-symbol-usage" /><use id="facebook-usage" xlink:href="#facebook" class="sprite-symbol-usage" /><use id="lightning-usage" xlink:href="#lightning" class="sprite-symbol-usage" /><use id="magnifier-usage" xlink:href="#magnifier" class="sprite-symbol-usage" /><use id="play_button-usage" xlink:href="#play_button" class="sprite-symbol-usage" /><use id="play_button_outlined-usage" xlink:href="#play_button_outlined" class="sprite-symbol-usage" /><use id="rss-usage" xlink:href="#rss" class="sprite-symbol-usage" /><use id="twitter-usage" xlink:href="#twitter" class="sprite-symbol-usage" /><use id="youtube-usage" xlink:href="#youtube" class="sprite-symbol-usage" /></svg>