<svg xmlns="http://www.w3.org/2000/svg" width="136" height="45" viewBox="0 0 136 45"><path d="M90.527,23a9.446,9.446,0,0,1-5.366-1.656,9.349,9.349,0,0,1-3.414-4.251,9.237,9.237,0,0,1-.486-1.645,9.431,9.431,0,0,1-.174-1.791,9.3,9.3,0,0,1,.166-1.742,9.436,9.436,0,1,1,18.539,3.533H85.44a5.3,5.3,0,0,0,.954,1.645,5.43,5.43,0,0,0,8.267,0h4.646a9.331,9.331,0,0,1-3.413,4.251A9.448,9.448,0,0,1,90.527,23Zm0-14.688a5.4,5.4,0,0,0-5.1,3.6H95.631A5.4,5.4,0,0,0,90.527,8.312ZM51.786,23a9.444,9.444,0,0,1-8.78-5.907,9.341,9.341,0,0,1,8.78-12.78,9.342,9.342,0,0,1,9.266,11.135H46.7a5.289,5.289,0,0,0,.953,1.645,5.432,5.432,0,0,0,8.269,0h4.645a9.343,9.343,0,0,1-3.413,4.251A9.448,9.448,0,0,1,51.786,23Zm0-14.688a5.4,5.4,0,0,0-5.1,3.6H56.89A5.4,5.4,0,0,0,51.786,8.312ZM9.439,23a9.444,9.444,0,0,1-8.78-5.907,9.142,9.142,0,0,1-.484-1.645,9.286,9.286,0,0,1-.01-3.533,9.459,9.459,0,0,1,18.549,0,9.334,9.334,0,0,1-.01,3.533H4.352A5.289,5.289,0,0,0,5.3,17.093a5.431,5.431,0,0,0,8.268,0h4.646a9.346,9.346,0,0,1-3.414,4.251A9.446,9.446,0,0,1,9.439,23Zm0-14.688a5.4,5.4,0,0,0-5.1,3.6H14.543A5.4,5.4,0,0,0,9.439,8.312Zm61.9,14.665h-4.92V4.361H71.1V8.134h.07A5.947,5.947,0,0,1,72.1,6.608a6.127,6.127,0,0,1,1.351-1.2,6.664,6.664,0,0,1,1.628-.772,5.962,5.962,0,0,1,1.8-.274,3.885,3.885,0,0,1,1.074.171V9.06c-.23-.045-.509-.086-.832-.121a9.19,9.19,0,0,0-.935-.051,5.306,5.306,0,0,0-2.288.446A3.981,3.981,0,0,0,72.4,10.552a4.869,4.869,0,0,0-.814,1.8,9.793,9.793,0,0,0-.242,2.229v8.394Zm-38.1,0H27.768L21.635,4.439H26.8L30.581,17.1h.07L34.42,4.439h4.886L33.243,22.976Zm99.3-.086a14.5,14.5,0,0,1-2.166-.155,5.158,5.158,0,0,1-1.8-.6,3.2,3.2,0,0,1-1.23-1.269,4.515,4.515,0,0,1-.45-2.162V7.619h-2.981V4.361H126.9V.834h4.92V4.361h3.6V7.619h-3.6v9.406a2.382,2.382,0,0,0,.415,1.646,2.436,2.436,0,0,0,1.663.412c.272,0,.541-.012.8-.034a6.863,6.863,0,0,0,.727-.1v3.773a11.84,11.84,0,0,1-1.385.138C133.522,22.879,133.02,22.891,132.545,22.891Zm-19.878,0a15.094,15.094,0,0,1-3.049-.309,8.135,8.135,0,0,1-2.651-1.03,5.631,5.631,0,0,1-2.72-4.87h4.678a2.657,2.657,0,0,0,.329,1.354,2.839,2.839,0,0,0,.849.926,3.688,3.688,0,0,0,1.2.532,5.7,5.7,0,0,0,1.4.171,5.278,5.278,0,0,0,1.092-.12,3.782,3.782,0,0,0,1.039-.377,2.379,2.379,0,0,0,.779-.686,1.8,1.8,0,0,0,.312-1.081c0-.728-.5-1.281-1.473-1.646a29.9,29.9,0,0,0-4.1-1.1c-.715-.159-1.421-.349-2.1-.565a7.185,7.185,0,0,1-1.819-.859,4.188,4.188,0,0,1-1.282-1.337,3.771,3.771,0,0,1-.485-1.972,5.312,5.312,0,0,1,.676-2.812,4.982,4.982,0,0,1,1.784-1.733,7.922,7.922,0,0,1,2.495-.892,15.64,15.64,0,0,1,2.84-.257,14.5,14.5,0,0,1,2.824.274,7.583,7.583,0,0,1,2.443.926,5.639,5.639,0,0,1,1.786,1.732,5.811,5.811,0,0,1,.848,2.727H115.68a2.132,2.132,0,0,0-1.073-1.9,4.982,4.982,0,0,0-2.288-.5,8.4,8.4,0,0,0-.9.052,3.023,3.023,0,0,0-.884.222,1.822,1.822,0,0,0-.676.5,1.312,1.312,0,0,0-.277.876,1.331,1.331,0,0,0,.486,1.062,3.752,3.752,0,0,0,1.264.669,15.973,15.973,0,0,0,1.784.464c.625.128,1.294.274,2.044.446a21.374,21.374,0,0,1,2.1.582,6.981,6.981,0,0,1,1.819.909,4.454,4.454,0,0,1,1.282,1.406,4.117,4.117,0,0,1,.486,2.075,5.374,5.374,0,0,1-2.565,4.837,7.641,7.641,0,0,1-2.615,1.011A15.48,15.48,0,0,1,112.667,22.891ZM134.618,2.661a1.512,1.512,0,0,1-.525-.093,1.333,1.333,0,0,1-.44-.267,1.287,1.287,0,0,1-.418-.973,1.313,1.313,0,0,1,.113-.549,1.313,1.313,0,0,1,.3-.418,1.4,1.4,0,0,1,.44-.267A1.485,1.485,0,0,1,134.618,0a1.5,1.5,0,0,1,.524.094,1.376,1.376,0,0,1,.44.267,1.278,1.278,0,0,1,.418.968,1.292,1.292,0,0,1-.113.553,1.278,1.278,0,0,1-.3.42,1.315,1.315,0,0,1-.44.267A1.529,1.529,0,0,1,134.618,2.661Zm0-2.377a1.011,1.011,0,0,0-.4.079.982.982,0,0,0-.323.217,1.057,1.057,0,0,0-.215.329,1.086,1.086,0,0,0-.079.419,1.071,1.071,0,0,0,.294.754,1.026,1.026,0,0,0,1.115.219.97.97,0,0,0,.322-.219,1.073,1.073,0,0,0,.3-.754,1.051,1.051,0,0,0-.3-.748.97.97,0,0,0-.322-.217A1.012,1.012,0,0,0,134.618.284Zm-.239,1.79h-.3V.581h.569a.811.811,0,0,1,.437.1.377.377,0,0,1,.152.342.44.44,0,0,1-.031.176.3.3,0,0,1-.085.119A.388.388,0,0,1,135,1.39a.691.691,0,0,1-.155.031l.4.651-.312,0-.367-.638h-.188v.638Zm0-1.262V1.2h.267a.54.54,0,0,0,.212-.036c.055-.022.083-.079.083-.17a.147.147,0,0,0-.03-.1.186.186,0,0,0-.074-.056.322.322,0,0,0-.1-.026.738.738,0,0,0-.105-.007Z" fill="#fff"/><path d="M99.619,12c-1.647,0-2.631-.809-2.631-2.165a1.728,1.728,0,0,1,.658-1.383,1.161,1.161,0,0,1-.507-1.069,1.278,1.278,0,0,1,.784-1.174,2.321,2.321,0,0,1-.481-1.448,2.112,2.112,0,0,1,2.164-2.2,2.09,2.09,0,0,1,1.1.3l1.138-.666.366.692-.885.508a2.112,2.112,0,0,1,.443,1.369,2.09,2.09,0,0,1-2.164,2.2,2.223,2.223,0,0,1-1.189-.312.733.733,0,0,0-.518.73c0,.565.548.626.784.626h1.645c1.232,0,1.91.611,1.91,1.721C102.238,11.194,101.308,12,99.619,12Zm-1.3-3.326a1.309,1.309,0,0,0-.569,1.188c0,.9.682,1.408,1.871,1.408,1.164,0,1.859-.536,1.859-1.435,0-.766-.394-1.122-1.24-1.122h-1.3A4.434,4.434,0,0,1,98.317,8.673Zm1.29-5.413a1.378,1.378,0,0,0-1.379,1.5,1.384,1.384,0,1,0,2.758,0A1.378,1.378,0,0,0,99.607,3.261Zm26.006,6.079a3.154,3.154,0,0,1-2.985-3.392,3.01,3.01,0,1,1,5.971,0A3.154,3.154,0,0,1,125.613,9.339Zm0-6.026a2.369,2.369,0,0,0-2.163,2.634,2.205,2.205,0,1,0,4.325,0A2.369,2.369,0,0,0,125.613,3.313Zm-5.892,6.026c-1.028,0-1.594-.7-1.594-1.97V3.417H117V2.66h1.126V.535L118.911,0V2.66h1.721v.757h-1.721V7.5c0,.7.323,1.084.911,1.084a1.514,1.514,0,0,0,.8-.21l.214.732A2.363,2.363,0,0,1,119.721,9.339Zm-7.632,0a1.825,1.825,0,0,1-1.985-2c0-1.388,1.042-2.153,2.934-2.153H114.1V4.9c0-1.041-.508-1.591-1.468-1.591a1.516,1.516,0,0,0-1.517,1.226l-.76-.183a2.291,2.291,0,0,1,4.529.522V9.235h-.595L114.1,8.217A2.154,2.154,0,0,1,112.089,9.339Zm.974-3.392c-1.4,0-2.138.483-2.138,1.4a1.128,1.128,0,0,0,1.239,1.239c.932,0,1.936-.747,1.936-2.387V5.947ZM91.943,9.339c-1.668,0-2.833-1.395-2.833-3.392s1.165-3.391,2.833-3.391a2.762,2.762,0,0,1,2.8,3.026v.365H89.933a3.149,3.149,0,0,0,.547,1.918,1.775,1.775,0,0,0,1.463.717A1.96,1.96,0,0,0,93.9,7.174l.7.352A2.722,2.722,0,0,1,91.943,9.339Zm0-6.026a2.045,2.045,0,0,0-1.96,1.877h3.947A1.9,1.9,0,0,0,91.943,3.313ZM86.165,9.339c-1.028,0-1.594-.7-1.594-1.97V3.417H83.446V2.66h1.125V.535L85.356,0V2.66h1.72v.757h-1.72V7.5c0,.7.323,1.084.911,1.084a1.512,1.512,0,0,0,.8-.21l.214.732A2.358,2.358,0,0,1,86.165,9.339Zm-31.908,0a3.154,3.154,0,0,1-2.985-3.392,3.01,3.01,0,1,1,5.971,0A3.154,3.154,0,0,1,54.257,9.339Zm0-6.026a2.369,2.369,0,0,0-2.163,2.634,2.205,2.205,0,1,0,4.325,0A2.369,2.369,0,0,0,54.257,3.313ZM43.96,9.339c-1.027,0-1.593-.7-1.593-1.97V3.417H41.241V2.66h1.126V.535L43.15,0V2.66h1.72v.757H43.15V7.5c0,.7.323,1.084.911,1.084a1.517,1.517,0,0,0,.8-.21l.214.732A2.365,2.365,0,0,1,43.96,9.339Zm-7.631,0a1.825,1.825,0,0,1-1.986-2c0-1.388,1.042-2.153,2.934-2.153h1.062V4.9c0-1.041-.507-1.591-1.467-1.591a1.516,1.516,0,0,0-1.517,1.226l-.76-.183a2.292,2.292,0,0,1,4.53.522V9.235h-.6l-.19-1.018A2.149,2.149,0,0,1,36.328,9.339ZM37.3,5.947c-1.4,0-2.137.483-2.137,1.4A1.128,1.128,0,0,0,36.4,8.582c.932,0,1.934-.747,1.934-2.387V5.947ZM22.66,9.339a3.154,3.154,0,0,1-2.985-3.392A3.153,3.153,0,0,1,22.66,2.556a3.153,3.153,0,0,1,2.984,3.391A3.154,3.154,0,0,1,22.66,9.339Zm0-6.026A2.369,2.369,0,0,0,20.5,5.947,2.37,2.37,0,0,0,22.66,8.582a2.37,2.37,0,0,0,2.163-2.635A2.369,2.369,0,0,0,22.66,3.313ZM77.009,9.236h-.784V2.66h.784V4.03A2.521,2.521,0,0,1,79.2,2.556c1.246,0,1.961.789,1.961,2.165V9.234h-.785V4.826c0-1-.438-1.513-1.3-1.513-1.214,0-2.062,1.25-2.062,3.039V9.235Zm-16.405,0h-.785V2.66H60.6V4.03a2.519,2.519,0,0,1,2.188-1.474c1.246,0,1.961.789,1.961,2.165V9.234h-.785V4.826c0-1-.438-1.513-1.3-1.513-1.214,0-2.062,1.25-2.062,3.039V9.235Zm-47.8,0h-.784V2.66H12.8V4.03A2.519,2.519,0,0,1,14.99,2.556c1.246,0,1.961.789,1.961,2.165V9.234h-.785V4.826c0-1-.438-1.513-1.3-1.513-1.214,0-2.062,1.25-2.062,3.039V9.235Zm-7.9,0H4.117V2.66H4.9V4.03A2.518,2.518,0,0,1,7.088,2.556c1.246,0,1.961.789,1.961,2.165V9.234H8.266V4.826c0-1-.438-1.513-1.3-1.513C5.749,3.313,4.9,4.563,4.9,6.352V9.235Zm43.547,0h-.783V2.66h.783V9.234Zm24.7,0h-.783V2.66h.783V9.234Zm-72.108,0H.253V2.66h.784V9.234Zm131.13,0h-.784V2.66h.784V3.835a1.99,1.99,0,0,1,1.872-1.279,2.167,2.167,0,0,1,.961.222l-.177.77a1.8,1.8,0,0,0-.9-.235c-1.068,0-1.759,1.326-1.759,3.379V9.234Zm-26.7,0h-.784V2.66h.784V3.835a1.99,1.99,0,0,1,1.872-1.279,2.166,2.166,0,0,1,.961.222l-.176.77a1.81,1.81,0,0,0-.9-.235c-1.068,0-1.758,1.326-1.758,3.379V9.234Zm-75.051,0h-.86L27.4,2.66h.823l1.758,5.491L31.739,2.66h.822l-2.15,6.574Zm42.342-7.8A.641.641,0,0,1,72.108.77a.645.645,0,1,1,1.29,0A.64.64,0,0,1,72.753,1.434Zm-24.7,0A.64.64,0,0,1,47.411.77a.645.645,0,1,1,1.29,0A.641.641,0,0,1,48.055,1.434Zm-47.411,0A.64.64,0,0,1,0,.77.641.641,0,0,1,.644.1.641.641,0,0,1,1.29.77.641.641,0,0,1,.644,1.434Z" transform="translate(1 33)" fill="#fff"/></svg>