<svg xmlns="http://www.w3.org/2000/svg" width="135.994" height="44.164" viewBox="0 0 135.994 44.164">
  <g id="logo" transform="translate(-144 -16.336)">
    <path id="лого" d="M90.524,23.234a9.438,9.438,0,0,1-8.78-5.967,9.285,9.285,0,0,1-.486-1.661,9.627,9.627,0,0,1-.174-1.81A9.44,9.44,0,0,1,99.8,12.036a9.524,9.524,0,0,1-.01,3.569H85.435a5.4,5.4,0,0,0,9.222,1.661H99.3a9.438,9.438,0,0,1-8.779,5.967Zm0-14.837a5.4,5.4,0,0,0-5.1,3.64H95.627A5.4,5.4,0,0,0,90.524,8.4ZM51.784,23.234a9.429,9.429,0,0,1-9.265-7.628,9.556,9.556,0,0,1-.174-1.81,9.439,9.439,0,0,1,18.713-1.759,9.5,9.5,0,0,1-.009,3.569H46.7a5.4,5.4,0,0,0,9.221,1.661h4.645a9.438,9.438,0,0,1-8.779,5.967Zm0-14.837a5.4,5.4,0,0,0-5.1,3.64H56.887A5.4,5.4,0,0,0,51.784,8.4ZM9.439,23.234a9.44,9.44,0,0,1-8.78-5.967,9.309,9.309,0,0,1-.484-1.661,9.439,9.439,0,1,1,18.538-3.569,9.524,9.524,0,0,1-.01,3.569H4.351a5.4,5.4,0,0,0,9.222,1.661h4.645a9.438,9.438,0,0,1-8.779,5.967Zm0-14.837a5.4,5.4,0,0,0-5.1,3.64H14.542A5.4,5.4,0,0,0,9.439,8.4Zm61.9,14.815H66.419V4.406H71.1V8.217h.07A6.1,6.1,0,0,1,72.1,6.675a6.189,6.189,0,0,1,1.352-1.212,6.632,6.632,0,0,1,1.627-.779,5.918,5.918,0,0,1,1.8-.277,3.859,3.859,0,0,1,1.074.173V9.153c-.226-.045-.506-.086-.832-.122a8.945,8.945,0,0,0-.935-.052A5.256,5.256,0,0,0,73.9,9.43,3.981,3.981,0,0,0,72.4,10.66a4.959,4.959,0,0,0-.814,1.819,9.991,9.991,0,0,0-.242,2.252v8.48Zm-38.1,0H27.767L21.634,4.485H26.8l3.783,12.793h.07L34.418,4.485H39.3L33.241,23.21Zm99.3-.087a14.468,14.468,0,0,1-2.165-.156,5.117,5.117,0,0,1-1.8-.607,3.211,3.211,0,0,1-1.229-1.282,4.587,4.587,0,0,1-.451-2.183V7.7h-2.98V4.406h2.98V.843h4.92V4.406h3.6V7.7h-3.6v9.5a2.424,2.424,0,0,0,.415,1.663,2.422,2.422,0,0,0,1.663.416c.289,0,.55-.011.8-.035a6.431,6.431,0,0,0,.727-.1v3.812a11.82,11.82,0,0,1-1.385.139C133.515,23.112,133.014,23.124,132.538,23.124Zm-19.877,0a14.967,14.967,0,0,1-3.049-.311,8.085,8.085,0,0,1-2.65-1.04,5.953,5.953,0,0,1-1.905-1.922,6.044,6.044,0,0,1-.815-3h4.677a2.7,2.7,0,0,0,.329,1.368,2.864,2.864,0,0,0,.849.936,3.652,3.652,0,0,0,1.2.536,5.606,5.606,0,0,0,1.4.174,5.224,5.224,0,0,0,1.092-.122,3.682,3.682,0,0,0,1.039-.381,2.369,2.369,0,0,0,.779-.693,1.828,1.828,0,0,0,.312-1.091c0-.736-.5-1.3-1.473-1.663a29.533,29.533,0,0,0-4.1-1.109c-.711-.16-1.417-.352-2.1-.571a7.134,7.134,0,0,1-1.818-.868,4.2,4.2,0,0,1-1.283-1.35,3.849,3.849,0,0,1-.485-1.993,5.407,5.407,0,0,1,.676-2.84,5,5,0,0,1,1.785-1.75,7.884,7.884,0,0,1,2.494-.9,15.481,15.481,0,0,1,2.84-.259,14.365,14.365,0,0,1,2.824.276,7.556,7.556,0,0,1,2.443.936,5.655,5.655,0,0,1,1.785,1.75,5.917,5.917,0,0,1,.849,2.755h-4.678A2.162,2.162,0,0,0,114.6,8.069a4.946,4.946,0,0,0-2.287-.5,8.625,8.625,0,0,0-.9.052,3.023,3.023,0,0,0-.885.225,1.833,1.833,0,0,0-.675.5,1.331,1.331,0,0,0-.278.884,1.353,1.353,0,0,0,.486,1.074,3.748,3.748,0,0,0,1.264.676,15.789,15.789,0,0,0,1.784.467c.675.141,1.363.292,2.044.451a21.153,21.153,0,0,1,2.1.59,6.943,6.943,0,0,1,1.819.917,4.488,4.488,0,0,1,1.282,1.421,4.186,4.186,0,0,1,.486,2.1,5.441,5.441,0,0,1-2.565,4.885,7.583,7.583,0,0,1-2.615,1.021A15.343,15.343,0,0,1,112.661,23.124ZM134.612,2.688a1.485,1.485,0,0,1-.525-.094,1.339,1.339,0,0,1-.44-.27,1.307,1.307,0,0,1-.418-.983,1.333,1.333,0,0,1,.113-.554,1.314,1.314,0,0,1,.3-.423,1.358,1.358,0,0,1,.44-.269,1.452,1.452,0,0,1,.525-.1,1.468,1.468,0,0,1,.524.1,1.352,1.352,0,0,1,.44.269,1.3,1.3,0,0,1,.3.423,1.319,1.319,0,0,1,.113.554,1.323,1.323,0,0,1-.113.558,1.3,1.3,0,0,1-.3.425,1.328,1.328,0,0,1-.44.27A1.5,1.5,0,0,1,134.612,2.688Zm0-2.4a1.011,1.011,0,0,0-.721.3,1.083,1.083,0,0,0-.215.333,1.113,1.113,0,0,0-.079.423,1.125,1.125,0,0,0,.079.425,1.084,1.084,0,0,0,.215.337.987.987,0,0,0,.323.221,1.029,1.029,0,0,0,.792,0,.963.963,0,0,0,.322-.221,1.076,1.076,0,0,0,.217-.337,1.092,1.092,0,0,0,.081-.425,1.081,1.081,0,0,0-.081-.423,1.055,1.055,0,0,0-.217-.333.969.969,0,0,0-.322-.219A.99.99,0,0,0,134.612.287ZM134.374,2.1h-.3V.586h.569a.805.805,0,0,1,.437.1.387.387,0,0,1,.152.346.451.451,0,0,1-.031.178.307.307,0,0,1-.085.121.358.358,0,0,1-.125.072.589.589,0,0,1-.155.032l.4.657-.312,0-.367-.644h-.188v.644Zm0-1.274v.4h.267a.536.536,0,0,0,.212-.037c.055-.023.083-.082.083-.173a.15.15,0,0,0-.03-.1.189.189,0,0,0-.074-.057.322.322,0,0,0-.1-.026.755.755,0,0,0-.105-.007Z" transform="translate(144 16.336)" fill="#bd243a"/>
    <path id="дескриптор" d="M99.461,11.619c-1.644,0-2.626-.784-2.626-2.1a1.653,1.653,0,0,1,.656-1.339,1.115,1.115,0,0,1-.5-1.035,1.236,1.236,0,0,1,.783-1.138,2.2,2.2,0,0,1-.481-1.4,2.077,2.077,0,0,1,2.16-2.134,2.131,2.131,0,0,1,1.1.291l1.137-.644.366.67-.884.492a2,2,0,0,1,.442,1.326,2.055,2.055,0,0,1-2.16,2.135,2.27,2.27,0,0,1-1.186-.3.713.713,0,0,0-.517.707c0,.547.547.606.782.606h1.643c1.229,0,1.906.592,1.906,1.667C102.075,10.838,101.147,11.619,99.461,11.619ZM98.16,8.4h0a1.254,1.254,0,0,0-.568,1.15c0,.867.681,1.363,1.868,1.363,1.163,0,1.857-.519,1.857-1.389,0-.741-.393-1.086-1.238-1.086h-1.3A4.636,4.636,0,0,1,98.16,8.4Zm1.288-5.24a1.353,1.353,0,0,0-1.376,1.451,1.379,1.379,0,1,0,2.753,0A1.354,1.354,0,0,0,99.448,3.158Zm25.966,5.884a3.088,3.088,0,0,1-2.981-3.284,2.995,2.995,0,1,1,5.962,0A3.088,3.088,0,0,1,125.414,9.042Zm0-5.835a2.315,2.315,0,0,0-2.159,2.551,2.189,2.189,0,1,0,4.318,0A2.315,2.315,0,0,0,125.414,3.208Zm-5.883,5.835c-1.026,0-1.591-.677-1.591-1.907V3.309h-1.124V2.576h1.124V.518L118.723,0V2.576h1.718v.734h-1.718V7.261c0,.676.323,1.049.909,1.049a1.544,1.544,0,0,0,.8-.2l.215.708A2.422,2.422,0,0,1,119.531,9.042Zm-7.619,0a1.8,1.8,0,0,1-1.983-1.933c0-1.344,1.04-2.084,2.929-2.084h1.061V4.748a1.345,1.345,0,0,0-1.465-1.541,1.506,1.506,0,0,0-1.516,1.187l-.759-.177a2.3,2.3,0,0,1,4.522.506V8.941h-.594l-.189-.985A2.162,2.162,0,0,1,111.911,9.042Zm.972-3.284c-1.4,0-2.134.467-2.134,1.351a1.11,1.11,0,0,0,1.238,1.2A2.042,2.042,0,0,0,113.919,6v-.24ZM91.8,9.042c-1.665,0-2.829-1.35-2.829-3.284S90.132,2.475,91.8,2.475a2.711,2.711,0,0,1,2.791,2.93v.353h-4.8a2.982,2.982,0,0,0,.547,1.857,1.792,1.792,0,0,0,1.46.695,1.957,1.957,0,0,0,1.958-1.364l.694.34A2.717,2.717,0,0,1,91.8,9.042Zm0-5.835A2.017,2.017,0,0,0,89.84,5.026h3.941A1.878,1.878,0,0,0,91.8,3.208ZM86.028,9.042c-1.026,0-1.591-.677-1.591-1.907V3.309H83.314V2.576h1.123V.518L85.22,0V2.576h1.718v.734H85.22V7.261c0,.676.323,1.049.91,1.049a1.548,1.548,0,0,0,.8-.2l.214.708A2.412,2.412,0,0,1,86.028,9.042Zm-31.856,0a3.088,3.088,0,0,1-2.981-3.284,2.995,2.995,0,1,1,5.962,0A3.088,3.088,0,0,1,54.172,9.042Zm0-5.835a2.315,2.315,0,0,0-2.159,2.551,2.189,2.189,0,1,0,4.318,0A2.315,2.315,0,0,0,54.172,3.208ZM43.89,9.042c-1.026,0-1.591-.677-1.591-1.907V3.309H41.175V2.576H42.3V.518L43.082,0V2.576H44.8v.734H43.082V7.261c0,.676.323,1.049.909,1.049a1.55,1.55,0,0,0,.8-.2L45,8.816A2.417,2.417,0,0,1,43.89,9.042Zm-7.619,0a1.8,1.8,0,0,1-1.983-1.933c0-1.344,1.04-2.084,2.93-2.084h1.06V4.748a1.344,1.344,0,0,0-1.464-1.541A1.5,1.5,0,0,0,35.3,4.395l-.758-.177a2.295,2.295,0,0,1,4.522.506V8.941h-.594l-.19-.985A2.161,2.161,0,0,1,36.271,9.042Zm.972-3.284c-1.4,0-2.134.467-2.134,1.351a1.11,1.11,0,0,0,1.237,1.2A2.042,2.042,0,0,0,38.278,6v-.24ZM22.624,9.042a3.088,3.088,0,0,1-2.981-3.284,2.994,2.994,0,1,1,5.961,0A3.087,3.087,0,0,1,22.624,9.042Zm0-5.835a2.315,2.315,0,0,0-2.159,2.551A2.315,2.315,0,0,0,22.624,8.31a2.315,2.315,0,0,0,2.159-2.551A2.315,2.315,0,0,0,22.624,3.208ZM76.888,8.943H76.1V2.576h.783V3.9a2.518,2.518,0,0,1,2.184-1.427,1.848,1.848,0,0,1,1.957,2.1V8.941h-.783V4.673c0-.972-.438-1.465-1.3-1.465-1.212,0-2.058,1.21-2.058,2.943V8.941Zm-16.38,0h-.783V2.576h.783V3.9a2.518,2.518,0,0,1,2.184-1.427,1.848,1.848,0,0,1,1.958,2.1V8.941h-.784V4.673c0-.972-.438-1.465-1.3-1.465-1.212,0-2.058,1.21-2.058,2.943V8.941Zm-47.726,0H12V2.576h.782V3.9a2.518,2.518,0,0,1,2.184-1.427,1.848,1.848,0,0,1,1.958,2.1V8.941h-.784V4.673c0-.972-.438-1.465-1.3-1.465-1.212,0-2.058,1.21-2.058,2.943V8.941Zm-7.889,0H4.11V2.576h.783V3.9A2.518,2.518,0,0,1,7.078,2.475a1.848,1.848,0,0,1,1.957,2.1V8.941H8.252V4.673c0-.972-.438-1.465-1.3-1.465-1.212,0-2.058,1.21-2.058,2.943V8.941Zm68.136,0h-.783V2.577h.783V8.941Zm-24.658,0h-.783V2.577h.783V8.941Zm-47.336,0H.253V2.577h.782V8.941Zm130.922,0h-.783V2.576h.783V3.713a1.986,1.986,0,0,1,1.869-1.238,2.214,2.214,0,0,1,.959.215l-.176.745a1.841,1.841,0,0,0-.9-.228c-1.067,0-1.756,1.284-1.756,3.271V8.941Zm-26.663,0h-.783V2.576h.783V3.713a1.986,1.986,0,0,1,1.869-1.238,2.215,2.215,0,0,1,.959.215l-.176.745a1.85,1.85,0,0,0-.9-.228c-1.066,0-1.755,1.284-1.755,3.271V8.941Zm-74.931,0H29.5L27.357,2.576h.821l1.755,5.316,1.756-5.316h.821L30.364,8.941ZM72.638,1.389a.63.63,0,0,1-.644-.644.644.644,0,1,1,1.288,0A.629.629,0,0,1,72.638,1.389Zm-24.659,0a.629.629,0,0,1-.644-.644.644.644,0,1,1,1.288,0A.63.63,0,0,1,47.979,1.389Zm-47.336,0A.629.629,0,0,1,0,.745.63.63,0,0,1,.643.1a.63.63,0,0,1,.644.644A.63.63,0,0,1,.643,1.389Z" transform="translate(144.628 48.881)" fill="#1a1919"/>
  </g>
</svg>
