<svg xmlns="http://www.w3.org/2000/svg" width="20" height="16" viewBox="0 0 20 16">
  <path id="twitter-brands" d="M17.944,3.987c.013.175.013.35.013.525A11.491,11.491,0,0,1,6.294,16,11.712,11.712,0,0,1,0,14.188a8.608,8.608,0,0,0,.99.05,8.289,8.289,0,0,0,5.089-1.725,4.1,4.1,0,0,1-3.833-2.8,5.246,5.246,0,0,0,.774.062A4.4,4.4,0,0,0,4.1,9.638,4.054,4.054,0,0,1,.812,5.675v-.05a4.176,4.176,0,0,0,1.853.512A4.019,4.019,0,0,1,.838,2.775,3.961,3.961,0,0,1,1.4.737,11.711,11.711,0,0,0,9.848,4.962a4.492,4.492,0,0,1-.1-.925A4.067,4.067,0,0,1,13.845,0,4.118,4.118,0,0,1,16.84,1.275,8.145,8.145,0,0,0,19.442.3a4.038,4.038,0,0,1-1.8,2.225A8.316,8.316,0,0,0,20,1.9,8.74,8.74,0,0,1,17.944,3.987Z"/>
</svg>
